HIERARCHY
ROOT root
{
	OFFSET 0.000000 0.000000 0.000000
	CHANNELS 6 Xposition Yposition Zposition Zrotation Yrotation Xrotation
	JOINT lhip
	{
		OFFSET 0.058581 -0.082280 -0.017664
		CHANNELS 3 Zrotation Yrotation Xrotation
		JOINT lknee
		{
			OFFSET 0.043451 -0.386469 0.008037
			CHANNELS 3 Zrotation Yrotation Xrotation
			JOINT lankle
			{
				OFFSET -0.014790 -0.426874 -0.037428
				CHANNELS 3 Zrotation Yrotation Xrotation
				JOINT ltoe
				{
					OFFSET 0.041054 -0.060286 0.122042
					CHANNELS 3 Zrotation Yrotation Xrotation
					End Site
					{
						OFFSET 0.000000 0.000000 0.000000
					}
				}
			}
		}
	}
	JOINT rhip
	{
		OFFSET -0.060310 -0.090513 -0.013543
		CHANNELS 3 Zrotation Yrotation Xrotation
		JOINT rknee
		{
			OFFSET -0.043257 -0.383688 -0.004843
			CHANNELS 3 Zrotation Yrotation Xrotation
			JOINT rankle
			{
				OFFSET 0.019056 -0.420046 -0.034562
				CHANNELS 3 Zrotation Yrotation Xrotation
				JOINT rtoe
				{
					OFFSET -0.034840 -0.062106 0.130323
					CHANNELS 3 Zrotation Yrotation Xrotation
					End Site
					{
						OFFSET 0.000000 0.000000 0.000000
					}
				}
			}
		}
	}
	JOINT lowerback
	{
		OFFSET 0.004439 0.124404 -0.038385
		CHANNELS 3 Zrotation Yrotation Xrotation
		JOINT upperback
		{
			OFFSET 0.004488 0.137956 0.026820
			CHANNELS 3 Zrotation Yrotation Xrotation
			JOINT chest
			{
				OFFSET -0.002265 0.056032 0.002855
				CHANNELS 3 Zrotation Yrotation Xrotation
				JOINT lowerneck
				{
					OFFSET -0.013390 0.211636 -0.033468
					CHANNELS 3 Zrotation Yrotation Xrotation
					JOINT upperneck
					{
						OFFSET 0.010113 0.088937 0.050410
						CHANNELS 3 Zrotation Yrotation Xrotation
						End Site
						{
							OFFSET 0.000000 0.000000 0.000000
						}
					}
				}
				JOINT lclavicle
				{
					OFFSET 0.071702 0.114000 -0.018898
					CHANNELS 3 Zrotation Yrotation Xrotation
					JOINT lshoulder
					{
						OFFSET 0.122921 0.045205 -0.019046
						CHANNELS 3 Zrotation Yrotation Xrotation
						JOINT lelbow
						{
							OFFSET 0.255332 -0.015649 -0.022946
							CHANNELS 3 Zrotation Yrotation Xrotation
							JOINT lwrist
							{
								OFFSET 0.265709 0.012698 -0.007375
								CHANNELS 3 Zrotation Yrotation Xrotation
								End Site
								{
									OFFSET 0.000000 0.000000 0.000000
								}
							}
						}
					}
				}
				JOINT rclavicle
				{
					OFFSET -0.082954 0.112472 -0.023707
					CHANNELS 3 Zrotation Yrotation Xrotation
					JOINT rshoulder
					{
						OFFSET -0.113228 0.046853 -0.008472
						CHANNELS 3 Zrotation Yrotation Xrotation
						JOINT relbow
						{
							OFFSET -0.260127 -0.014369 -0.031269
							CHANNELS 3 Zrotation Yrotation Xrotation
							JOINT rwrist
							{
								OFFSET -0.269108 0.006794 -0.006027
								CHANNELS 3 Zrotation Yrotation Xrotation
								End Site
								{
									OFFSET 0.000000 0.000000 0.000000
								}
							}
						}
					}
				}
			}
		}
	}
}
MOTION
Frames: 6
Frame Time: 0.033333
0.227577 -0.284104 1.008669 -1.886537 2.838663 89.290693 1.881665 1.744324 -7.016713 -6.586628 -6.663217 12.397346 1.631557 10.937890 -10.679823 0.000000 -0.000000 0.000000 -2.592299 -0.465116 -22.632421 3.414060 -9.128364 33.826108 7.395400 -6.468309 -9.615335 0.000000 -0.000000 0.000000 -1.957469 0.888195 17.603529 1.974766 1.354286 -4.791641 2.064253 -0.546844 -1.273856 5.254345 1.860576 -12.680073 1.764037 -2.700919 6.559704 -26.127080 -0.910885 0.085722 -45.617042 -5.359573 2.657080 18.694399 -13.628784 -8.662173 -9.018550 -1.722259 5.367425 24.026178 4.540920 -0.990140 45.686968 8.012385 6.610745 -16.854146 22.513130 -12.628370 30.002849 5.282771 -15.567394 
0.227214 -0.287223 1.009350 -2.129431 3.124602 89.622775 2.074737 1.767120 -6.982752 -6.374824 -6.779806 12.156742 1.584908 11.278351 -10.638526 0.000000 -0.000000 0.000000 -1.835172 0.728420 -23.511432 3.529929 -6.307398 28.127725 6.829829 -5.360864 -9.692203 0.000000 -0.000000 0.000000 -1.383187 0.709467 17.599274 1.795483 1.223046 -5.073841 2.250148 -0.677569 -1.287654 4.534447 2.347232 -12.305125 1.810054 -2.324071 5.674687 -26.278764 -1.295586 0.160312 -45.977347 -6.025484 2.445235 18.259916 -11.923171 -9.349920 -1.713065 -3.692864 4.986682 23.504330 4.959383 -0.296809 46.304561 7.988797 9.037968 -13.918727 23.607964 -4.971379 20.056395 4.173584 -10.456189 
0.226370 -0.292560 1.008925 -2.311632 3.009905 90.049763 1.939051 1.816041 -6.671379 -6.192722 -7.080407 11.446213 1.682997 11.717264 -10.227255 0.000000 -0.000000 0.000000 -1.550453 1.198278 -23.798841 3.911893 -2.696044 21.593128 7.211780 -3.352498 -8.305675 0.000000 -0.000000 0.000000 -1.195703 0.645114 17.002747 1.624892 1.018103 -5.018177 2.300541 -0.772490 -1.522360 4.113887 2.403602 -11.264704 2.140336 -1.869211 4.834539 -26.197169 -1.506123 0.346341 -46.348883 -6.689043 2.928083 17.099026 -11.053497 -9.215695 4.087811 -4.669888 3.755346 23.279955 5.279998 0.676835 46.368132 8.428127 11.060346 -10.440720 23.734458 1.971211 10.881676 3.451856 -5.664047 
0.223592 -0.303554 1.006246 -2.268091 2.440766 90.032759 1.567916 1.837983 -4.754412 -5.968935 -7.283580 9.252517 2.340772 11.780710 -9.020404 0.000000 -0.000000 0.000000 -1.719479 0.238229 -22.375360 4.928350 0.032540 16.589736 8.902966 0.025427 3.725251 0.000000 -0.000000 0.000000 -1.305041 0.684787 15.993724 1.193657 0.569858 -4.547625 2.303239 -0.971287 -2.230519 3.469237 1.608894 -8.772660 2.971471 -1.111760 3.989642 -26.076352 -2.479003 1.043321 -46.997509 -7.500881 3.693521 15.522865 -11.264215 -8.214114 7.648488 -5.438559 3.119019 22.992233 5.920302 1.732916 47.081914 9.479785 12.813879 -6.925848 22.679280 8.672392 3.526866 2.670010 0.526048 
0.222215 -0.307971 1.004989 -2.289125 2.137424 89.828826 1.383391 2.050084 -3.687758 -5.825872 -7.340019 8.348338 2.278090 11.556672 -8.924062 0.000000 -0.000000 0.000000 -1.854065 -0.366093 -21.284015 4.833728 -0.126502 15.732538 8.821009 0.665150 2.909415 0.000000 -0.000000 0.000000 -1.420162 0.739992 15.712381 0.936054 0.455254 -4.387103 2.204072 -0.926629 -2.460982 3.527233 1.690161 -8.096607 3.029195 -1.374000 4.222826 -26.099000 -2.902345 1.064878 -46.964142 -7.649568 4.134827 14.984332 -11.827451 -7.637478 7.339073 -5.521303 2.927842 23.029359 6.214637 1.801675 47.404116 9.660276 12.929561 -6.630682 22.392448 9.120514 3.323815 2.507452 0.826454 
0.218898 -0.317411 1.003332 -2.306204 1.820868 89.003124 1.598459 2.597038 -0.858857 -5.673911 -7.524859 6.285002 1.890865 11.007235 -8.163300 0.000000 -0.000000 0.000000 -1.866144 -1.413854 -18.190937 4.835582 -0.953685 12.606189 7.757810 1.132347 3.643886 0.000000 -0.000000 0.000000 -1.252231 0.917972 15.550234 0.386390 0.225956 -4.294475 1.959564 -0.851049 -2.623976 3.443585 1.648801 -6.782843 3.153546 -1.513923 4.737728 -26.106214 -3.374770 1.009999 -47.074539 -8.041102 4.861447 14.196072 -14.127598 -6.306807 5.424482 -5.477108 2.411514 23.266551 6.826087 1.803791 47.937867 9.962214 13.115986 -6.521006 21.606717 9.404374 3.805225 2.191745 1.800128 
